%
M48
M72
T01C0.0200
T02C0.0320
T03C0.0354
T04C0.0394
T05C0.0400
T06C0.1260
%
T01
X18437Y23667
X19037Y29767
X12937Y29267
T02
X12535Y32267
X11535Y32267
X10535Y32267
X9535Y32267
X8535Y32267
X8535Y35267
X9535Y35267
X10535Y35267
X11535Y35267
X12535Y35267
X13535Y35267
X14535Y35267
X15535Y35267
X16535Y35267
X17535Y35267
X17535Y32267
X16535Y32267
X15535Y32267
X14535Y32267
X13535Y32267
T03
X19537Y32267
X19537Y35267
T04
X22287Y32267
X22787Y33267
X23787Y33267
X24287Y32267
X23287Y32267
X24787Y33267
X25287Y32267
X25787Y33267
X18137Y19867
X18137Y18667
X9937Y18667
X9937Y19867
X5287Y32267
X4287Y32267
X4787Y33267
X5787Y33267
X3787Y33267
X3287Y32267
X2287Y32267
X2787Y33267
T05
X2757Y4877
X2757Y6657
X5317Y6657
X5317Y4877
X6257Y3157
X6257Y1377
X8817Y1377
X8817Y3157
X9757Y4877
X9757Y6657
X8817Y8377
X8817Y10157
X6257Y10157
X6257Y8377
X4487Y15517
X4487Y16517
X4487Y17517
X4487Y18517
X4487Y19517
X4487Y20517
X3487Y20517
X3487Y19517
X3487Y18517
X3487Y17517
X3487Y16517
X3487Y15517
X2487Y15517
X2487Y16517
X2487Y17517
X2487Y18517
X2487Y19517
X2487Y20517
X1487Y20517
X1487Y19517
X1487Y18517
X1487Y17517
X1487Y16517
X1487Y15517
X10537Y28267
X11537Y28267
X12537Y28267
X13537Y28267
X14537Y28267
X15537Y28267
X16537Y28267
X17537Y28267
X26537Y19267
X26537Y18267
X26537Y17267
X26537Y16267
X12317Y6657
X12317Y4877
T06
X6287Y35767
X1787Y35767
X21787Y35767
X26287Y35767
M30
