G75*
G70*
%OFA0B0*%
%FSLAX24Y24*%
%IPPOS*%
%LPD*%
%AMOC8*
5,1,8,0,0,1.08239X$1,22.5*
%
%ADD10C,0.0714*%
%ADD11C,0.0640*%
%ADD12R,0.0820X0.0820*%
%ADD13C,0.0820*%
%ADD14C,0.1340*%
D10*
X009937Y018667D03*
X009937Y019867D03*
X018137Y019867D03*
X018137Y018667D03*
D11*
X017535Y031987D02*
X017535Y032547D01*
X016535Y032547D02*
X016535Y031987D01*
X015535Y031987D02*
X015535Y032547D01*
X014535Y032547D02*
X014535Y031987D01*
X013535Y031987D02*
X013535Y032547D01*
X012535Y032547D02*
X012535Y031987D01*
X011535Y031987D02*
X011535Y032547D01*
X010535Y032547D02*
X010535Y031987D01*
X009535Y031987D02*
X009535Y032547D01*
X008535Y032547D02*
X008535Y031987D01*
X008535Y034987D02*
X008535Y035547D01*
X009535Y035547D02*
X009535Y034987D01*
X010535Y034987D02*
X010535Y035547D01*
X011535Y035547D02*
X011535Y034987D01*
X012535Y034987D02*
X012535Y035547D01*
X013535Y035547D02*
X013535Y034987D01*
X014535Y034987D02*
X014535Y035547D01*
X015535Y035547D02*
X015535Y034987D01*
X016535Y034987D02*
X016535Y035547D01*
X017535Y035547D02*
X017535Y034987D01*
D12*
X010537Y028267D03*
X005787Y033267D03*
X025787Y033267D03*
X026537Y019267D03*
D13*
X002757Y004877D03*
X002757Y006657D03*
X005317Y006657D03*
X005317Y004877D03*
X006257Y003157D03*
X006257Y001377D03*
X008817Y001377D03*
X008817Y003157D03*
X009757Y004877D03*
X009757Y006657D03*
X008817Y008377D03*
X008817Y010157D03*
X006257Y010157D03*
X006257Y008377D03*
X004487Y015517D03*
X004487Y016517D03*
X004487Y017517D03*
X004487Y018517D03*
X004487Y019517D03*
X004487Y020517D03*
X003487Y020517D03*
X003487Y019517D03*
X003487Y018517D03*
X003487Y017517D03*
X003487Y016517D03*
X003487Y015517D03*
X002487Y015517D03*
X002487Y016517D03*
X002487Y017517D03*
X002487Y018517D03*
X002487Y019517D03*
X002487Y020517D03*
X001487Y020517D03*
X001487Y019517D03*
X001487Y018517D03*
X001487Y017517D03*
X001487Y016517D03*
X001487Y015517D03*
X011537Y028267D03*
X012537Y028267D03*
X013537Y028267D03*
X014537Y028267D03*
X015537Y028267D03*
X016537Y028267D03*
X017537Y028267D03*
X019537Y032267D03*
X019537Y035267D03*
X022287Y032267D03*
X022787Y033267D03*
X023787Y033267D03*
X024287Y032267D03*
X023287Y032267D03*
X024787Y033267D03*
X025287Y032267D03*
X026537Y018267D03*
X026537Y017267D03*
X026537Y016267D03*
X012317Y006657D03*
X012317Y004877D03*
X005287Y032267D03*
X004287Y032267D03*
X004787Y033267D03*
X003787Y033267D03*
X003287Y032267D03*
X002287Y032267D03*
X002787Y033267D03*
D14*
X001787Y035767D03*
X006287Y035767D03*
X021787Y035767D03*
X026287Y035767D03*
M02*
