G75*
G70*
%OFA0B0*%
%FSLAX24Y24*%
%IPPOS*%
%LPD*%
%AMOC8*
5,1,8,0,0,1.08239X$1,22.5*
%
%ADD10C,0.7000*%
%ADD11C,0.0634*%
%ADD12C,0.0560*%
%ADD13R,0.0740X0.0740*%
%ADD14C,0.0740*%
%ADD15C,0.0080*%
%ADD16C,0.0400*%
D10*
X014037Y019267D03*
D11*
X018137Y019867D03*
X018137Y018667D03*
X009937Y018667D03*
X009937Y019867D03*
D12*
X009535Y031987D02*
X009535Y032547D01*
X010535Y032547D02*
X010535Y031987D01*
X011535Y031987D02*
X011535Y032547D01*
X012535Y032547D02*
X012535Y031987D01*
X013535Y031987D02*
X013535Y032547D01*
X014535Y032547D02*
X014535Y031987D01*
X015535Y031987D02*
X015535Y032547D01*
X016535Y032547D02*
X016535Y031987D01*
X017535Y031987D02*
X017535Y032547D01*
X017535Y034987D02*
X017535Y035547D01*
X016535Y035547D02*
X016535Y034987D01*
X015535Y034987D02*
X015535Y035547D01*
X014535Y035547D02*
X014535Y034987D01*
X013535Y034987D02*
X013535Y035547D01*
X012535Y035547D02*
X012535Y034987D01*
X011535Y034987D02*
X011535Y035547D01*
X010535Y035547D02*
X010535Y034987D01*
X009535Y034987D02*
X009535Y035547D01*
X008535Y035547D02*
X008535Y034987D01*
X008535Y032547D02*
X008535Y031987D01*
D13*
X010537Y028267D03*
X005787Y033267D03*
X025787Y033267D03*
X026537Y019267D03*
D14*
X002757Y004877D03*
X002757Y006657D03*
X005317Y006657D03*
X005317Y004877D03*
X006257Y003157D03*
X006257Y001377D03*
X008817Y001377D03*
X008817Y003157D03*
X009757Y004877D03*
X009757Y006657D03*
X008817Y008377D03*
X008817Y010157D03*
X006257Y010157D03*
X006257Y008377D03*
X004487Y015517D03*
X004487Y016517D03*
X004487Y017517D03*
X004487Y018517D03*
X004487Y019517D03*
X004487Y020517D03*
X003487Y020517D03*
X003487Y019517D03*
X003487Y018517D03*
X003487Y017517D03*
X003487Y016517D03*
X003487Y015517D03*
X002487Y015517D03*
X002487Y016517D03*
X002487Y017517D03*
X002487Y018517D03*
X002487Y019517D03*
X002487Y020517D03*
X001487Y020517D03*
X001487Y019517D03*
X001487Y018517D03*
X001487Y017517D03*
X001487Y016517D03*
X001487Y015517D03*
X011537Y028267D03*
X012537Y028267D03*
X013537Y028267D03*
X014537Y028267D03*
X015537Y028267D03*
X016537Y028267D03*
X017537Y028267D03*
X019537Y032267D03*
X019537Y035267D03*
X022287Y032267D03*
X022787Y033267D03*
X023787Y033267D03*
X024287Y032267D03*
X023287Y032267D03*
X024787Y033267D03*
X025287Y032267D03*
X026537Y018267D03*
X026537Y017267D03*
X026537Y016267D03*
X012317Y006657D03*
X012317Y004877D03*
X005287Y032267D03*
X004287Y032267D03*
X004787Y033267D03*
X003787Y033267D03*
X003287Y032267D03*
X002287Y032267D03*
X002787Y033267D03*
D15*
X005787Y033267D02*
X006437Y033267D01*
X008437Y035267D01*
X008535Y035267D01*
X009537Y032267D02*
X009535Y032267D01*
X009537Y032267D02*
X012537Y029267D01*
X012937Y029267D01*
X012937Y028767D02*
X010037Y028767D01*
X006837Y025567D01*
X006837Y004967D01*
X005337Y004967D01*
X005317Y004877D01*
X008817Y010157D02*
X008837Y010167D01*
X014237Y015567D01*
X015837Y015567D01*
X019137Y018867D01*
X018137Y019867D01*
X018837Y019867D01*
X018837Y023767D01*
X018537Y024067D01*
X014737Y024067D01*
X010537Y028267D01*
X011537Y028267D02*
X012037Y027767D01*
X020937Y027767D01*
X020937Y022867D01*
X026537Y017267D01*
X026537Y016267D02*
X021737Y016267D01*
X019137Y018867D01*
X018437Y023667D02*
X014037Y019267D01*
X015537Y028267D02*
X017437Y030167D01*
X020037Y030167D01*
X020037Y032467D01*
X019337Y033167D01*
X012437Y033167D01*
X011537Y032267D01*
X011535Y032267D01*
X013437Y033367D02*
X019437Y033367D01*
X026037Y026767D01*
X026037Y018267D01*
X026537Y018267D01*
X026537Y019267D02*
X026537Y026567D01*
X019537Y033567D01*
X014237Y033567D01*
X012537Y035267D01*
X012535Y035267D01*
X011537Y035267D02*
X011535Y035267D01*
X011537Y035267D02*
X013437Y033367D01*
X014237Y032967D02*
X013537Y032267D01*
X013535Y032267D01*
X014237Y032967D02*
X018837Y032967D01*
X019537Y032267D01*
X019037Y029767D02*
X017537Y028267D01*
X016535Y032267D02*
X016437Y032267D01*
X012937Y028767D01*
D16*
X012937Y029267D03*
X018437Y023667D03*
X019037Y029767D03*
M02*
